# xmcd
#
# Track frame offsets:
#	150
#	19490
#	33539
#	50600
#	65610
#	78639
#	92971
#	104376
#	119595
#	133093
#	147571
#	165938
#	179195
#	191556
#
# Disc length: 2726 seconds
#
# Revision: 0
# Processed by: cddbd v1.5.1PL2 Copyright (c) Steve Scherf et al.
# Submitted via: dBpowerAMP V4.0
#
DISCID=d90aa40e
DTITLE=C.W. Stongking - Mississippe and Piedmont Blues 1927-41
DYEAR=2006
DGENRE=Blues
TTITLE0=Ragged and Dirty
TTITLE1=You Gotta change Your Mind
TTITLE2=Nappy Head Blues
TTITLE3=Dryspell Blues
TTITLE4=All Round Man
TTITLE5=Last Kind Words
TTITLE6=Love In Vain
TTITLE7=Pare Thee Well Blues
TTITLE8=Death Letter
TTITLE9=Tallahatchie River Blues
TTITLE10=She Don't Treat Me Good No More
TTITLE11=He's In The Jailhouse Now
TTITLE12=Hard Time Killing Floor
TTITLE13=Beedle Um Bum
EXTD=
EXTT0=
EXTT1=
EXTT2=
EXTT3=
EXTT4=
EXTT5=
EXTT6=
EXTT7=
EXTT8=
EXTT9=
EXTT10=
EXTT11=
EXTT12=
EXTT13=
PLAYORDER=
